<svg width="165" height="121" viewBox="0 0 165 121" fill="none" xmlns="http://www.w3.org/2000/svg">
<path d="M80.3438 39.0758C73.9662 34.9934 66.3824 32.625 58.25 32.625C53.46 32.625 48.8551 33.4471 44.5732 34.9606C43.312 35.4063 42.4688 36.5987 42.4688 37.9364V97.9052C42.4688 98.9297 42.9661 99.8906 43.8026 100.482C44.6392 101.074 45.7108 101.222 46.6768 100.881C50.2925 99.603 54.1865 98.9062 58.25 98.9062C66.6457 98.9062 74.3395 101.883 80.3438 106.842V39.0758Z" fill="#9EF2D4"/>
<path d="M86.6562 106.842C92.6605 101.883 100.354 98.9062 108.75 98.9062C112.814 98.9062 116.707 99.603 120.323 100.881C121.289 101.222 122.361 101.074 123.197 100.482C124.034 99.8906 124.531 98.9297 124.531 97.9052V37.9364C124.531 36.5987 123.688 35.4063 122.427 34.9606C118.145 33.4471 113.54 32.625 108.75 32.625C100.618 32.625 93.0338 34.9934 86.6562 39.0758V106.842Z" fill="#9EF2D4"/>
<path fill-rule="evenodd" clip-rule="evenodd" d="M138.512 12.8898C138.689 13.1859 138.641 13.5645 138.396 13.8072L133.02 19.1357L139.314 22.7697C139.573 22.9191 139.718 23.2076 139.684 23.5043C139.65 23.801 139.444 24.0494 139.158 24.1366L124.44 28.6294C124.11 28.7301 123.754 28.5928 123.577 28.2968C123.4 28.0007 123.448 27.6221 123.693 27.3794L129.069 22.0509L122.775 18.4169C122.516 18.2675 122.37 17.979 122.404 17.6823C122.438 17.3855 122.645 17.1372 122.931 17.05L137.649 12.5572C137.979 12.4565 138.335 12.5938 138.512 12.8898Z" fill="#9EF2D4"/>
<path fill-rule="evenodd" clip-rule="evenodd" d="M29.9221 15.5428C25.2513 17.2428 22.843 22.4074 24.543 27.0782C26.2431 31.749 31.4076 34.1573 36.0784 32.4573C40.7492 30.7572 43.1575 25.5926 41.4575 20.9218C39.7575 16.251 34.5929 13.8428 29.9221 15.5428ZM31.7565 18.5588C31.6258 18.1995 31.2285 18.0142 30.8692 18.145C30.5099 18.2758 30.3247 18.6731 30.4554 19.0324L32.3497 24.2368C32.4805 24.5961 32.8777 24.7814 33.237 24.6506L37.1404 23.2299C37.4997 23.0991 37.6849 22.7018 37.5542 22.3425C37.4234 21.9832 37.0261 21.798 36.6668 21.9288L33.414 23.1127L31.7565 18.5588Z" fill="#9EF2D4"/>
<path fill-rule="evenodd" clip-rule="evenodd" d="M82.75 0C77.3652 0 73 4.36522 73 9.75C73 15.1348 77.3652 19.5 82.75 19.5C88.1348 19.5 92.5 15.1348 92.5 9.75C92.5 4.36522 88.1348 0 82.75 0ZM77.012 3.8223C75.4629 5.32208 74.5 7.42359 74.5 9.75C74.5 14.3063 78.1937 18 82.75 18C87.3063 18 91 14.3063 91 9.75C91 6.99461 89.6492 4.55472 87.5737 3.0564C87.2363 3.59545 86.7874 4.05831 86.2556 4.41289L84.9999 5.25L85.1645 5.57918C85.4335 6.1171 85.0423 6.75 84.4409 6.75C84.3153 6.75 84.1914 6.72076 84.0791 6.66459L83.4752 6.36262C83.0421 6.14607 82.519 6.23095 82.1766 6.57336L82.0454 6.7045C81.6061 7.14384 81.6061 7.85615 82.0454 8.29549L82.3405 8.59062C82.5974 8.84753 82.9626 8.96455 83.321 8.90482L84.4911 8.70981C84.8141 8.65596 85.1446 8.74558 85.3962 8.95525L86.7255 10.063C87.0462 10.3302 87.1856 10.7573 87.0844 11.1622C86.7019 12.6919 85.9109 14.089 84.796 15.2039L84.0733 15.9266C83.7309 16.269 83.2078 16.3539 82.7747 16.1374L82.6218 16.0609C82.2407 15.8704 81.9999 15.4808 81.9999 15.0547V13.966C81.9999 13.6676 81.8814 13.3815 81.6704 13.1705L80.3233 11.8234C79.9809 11.481 79.896 10.9579 80.1125 10.5247L80.4999 9.75L78.8595 8.10962C77.9753 7.22535 77.3894 6.08689 77.1838 4.85337L77.012 3.8223Z" fill="#9EF2D4"/>
<g clip-path="url(#clip0_381_979)">
<path d="M20.5398 58.2866L20.5324 58.2869L20.5067 58.2876C20.4847 58.2881 20.4533 58.2888 20.4128 58.2894C20.3319 58.2906 20.215 58.2915 20.0662 58.2902C19.7686 58.2878 19.3429 58.2771 18.8221 58.2442C17.7821 58.1785 16.3539 58.0238 14.8051 57.6666C11.7402 56.9595 8.03579 55.4189 6.07324 52.0197C4.60921 49.4839 5.58178 46.2412 8.15726 44.7543C9.67183 43.8798 11.4275 43.7889 12.9178 44.3748C13.1556 42.7912 14.1121 41.3162 15.6267 40.4418C18.2022 38.9548 21.4967 39.7339 22.9607 42.2697C24.9233 45.6689 24.4053 49.6473 23.4851 52.6552C23.0202 54.1751 22.44 55.4892 21.9769 56.4227C21.745 56.8902 21.5414 57.2643 21.3947 57.5232C21.3214 57.6527 21.2622 57.7535 21.2207 57.823C21.2 57.8577 21.1836 57.8846 21.1722 57.9034L21.1587 57.9253L21.1548 57.9316L21.1531 57.9342C21.021 58.1454 20.7919 58.2777 20.543 58.2865L20.5398 58.2866Z" fill="#9EF2D4"/>
</g>
<path fill-rule="evenodd" clip-rule="evenodd" d="M152.194 37.875C147.53 35.1826 141.567 36.7804 138.875 41.4437C136.183 46.1071 137.78 52.0701 142.444 54.7625C147.107 57.4549 153.07 55.8571 155.762 51.1937C158.455 46.5304 156.857 40.5674 152.194 37.875ZM146.92 41.7587C146.452 41.4883 145.994 41.7072 145.793 41.8399C145.55 42.0003 145.345 42.2369 145.196 42.4952C145.047 42.7535 144.944 43.0489 144.927 43.3395C144.913 43.5799 144.952 44.0864 145.42 44.3567C145.889 44.6271 146.347 44.4082 146.548 44.2754C146.791 44.1151 146.996 43.8785 147.145 43.6202C147.294 43.3619 147.396 43.0664 147.414 42.7759C147.428 42.5355 147.389 42.029 146.92 41.7587ZM150.339 44.4649C150.54 44.3322 150.999 44.1133 151.467 44.3837C151.935 44.654 151.975 45.1605 151.961 45.4009C151.943 45.6914 151.84 45.9869 151.691 46.2452C151.542 46.5035 151.338 46.7401 151.095 46.9004C150.894 47.0332 150.435 47.2521 149.967 46.9817C149.499 46.7114 149.459 46.2049 149.474 45.9645C149.491 45.6739 149.594 45.3785 149.743 45.1202C149.892 44.8619 150.096 44.6253 150.339 44.4649ZM148.678 51.3899C149.078 51.2827 149.315 50.8714 149.208 50.4713C149.101 50.0712 148.689 49.8338 148.289 49.941C146.289 50.477 144.233 49.2898 143.697 47.2893C143.589 46.8892 143.178 46.6518 142.778 46.759C142.378 46.8662 142.14 47.2775 142.248 47.6776C142.998 50.4783 145.877 52.1403 148.678 51.3899Z" fill="#9EF2D4"/>
<path fill-rule="evenodd" clip-rule="evenodd" d="M151.815 73.0837C154.696 69.383 159.195 67.0002 164.25 67C164.449 67 164.64 67.079 164.78 67.2197C164.921 67.3603 165 67.5511 165 67.75C165 72.8056 162.617 77.305 158.916 80.1858C158.971 80.5329 159 80.8883 159 81.25C159 84.9779 155.978 88 152.25 88C151.836 88 151.5 87.6642 151.5 87.25V83.1185C151.491 83.1118 151.482 83.1049 151.473 83.0978C150.521 82.3429 149.658 81.4803 148.903 80.5282C148.896 80.519 148.889 80.5096 148.882 80.5H144.75C144.336 80.5 144 80.1642 144 79.75C144 76.0221 147.022 73 150.75 73C151.112 73 151.468 73.0286 151.815 73.0837ZM157.5 72.25C156.257 72.25 155.25 73.2574 155.25 74.5C155.25 75.7426 156.257 76.75 157.5 76.75C158.743 76.75 159.75 75.7426 159.75 74.5C159.75 73.2574 158.743 72.25 157.5 72.25Z" fill="#9EF2D4"/>
<path d="M147.76 82.7418C148.092 82.4942 148.161 82.0242 147.913 81.6922C147.665 81.3602 147.195 81.2918 146.863 81.5395C145.582 82.4954 144.75 84.0256 144.75 85.7499C144.75 86.0255 144.771 86.2966 144.812 86.5615C144.863 86.8842 145.116 87.1373 145.438 87.1875C145.703 87.2286 145.974 87.2499 146.25 87.2499C147.974 87.2499 149.505 86.4178 150.46 85.1365C150.708 84.8045 150.64 84.3345 150.308 84.0869C149.976 83.8392 149.506 83.9075 149.258 84.2396C148.573 85.1577 147.481 85.7499 146.25 85.7499C146.25 84.5191 146.842 83.4268 147.76 82.7418Z" fill="#9EF2D4"/>
<path fill-rule="evenodd" clip-rule="evenodd" d="M9.07376 74.4363C9.38842 74.3218 9.74089 74.4297 9.93745 74.7008L11.6751 77.0972C12.4356 78.1461 13.6837 78.7281 14.9761 78.6365L17.9288 78.4272C18.2628 78.4036 18.5721 78.6042 18.6866 78.9188C18.8011 79.2335 18.6932 79.586 18.4221 79.7825L16.0257 81.5202C14.9768 82.2807 14.3948 83.5288 14.4864 84.8212L14.6957 87.7739C14.7193 88.1079 14.5187 88.4172 14.2041 88.5317C13.8894 88.6462 13.5369 88.5383 13.3404 88.2672L11.6027 85.8708C10.8422 84.8219 9.59407 84.2398 8.30168 84.3315L5.34901 84.5408C5.01499 84.5644 4.70574 84.3638 4.59121 84.0491C4.47668 83.7345 4.58463 83.382 4.85572 83.1854L7.25214 81.4478C8.30105 80.6873 8.88306 79.4392 8.79145 78.1468L8.58215 75.1941C8.55847 74.8601 8.75909 74.5508 9.07376 74.4363Z" fill="#9EF2D4"/>
<path fill-rule="evenodd" clip-rule="evenodd" d="M16.5049 68.539C16.8283 68.4213 17.1903 68.5388 17.383 68.824L17.9804 69.7085C18.523 70.5119 19.4642 70.9508 20.4284 70.85L21.4899 70.7391C21.8322 70.7034 22.1549 70.9052 22.2726 71.2286C22.3903 71.552 22.2728 71.914 21.9877 72.1066L21.1032 72.704C20.2998 73.2466 19.8609 74.1878 19.9616 75.152L20.0725 76.2136C20.1083 76.5559 19.9065 76.8786 19.5831 76.9963C19.2597 77.114 18.8977 76.9965 18.7051 76.7113L18.1077 75.8268C17.5651 75.0235 16.6238 74.5846 15.6596 74.6853L14.5981 74.7962C14.2558 74.8319 13.9331 74.6301 13.8154 74.3067C13.6977 73.9834 13.8152 73.6213 14.1004 73.4287L14.9849 72.8313C15.7882 72.2887 16.2271 71.3475 16.1264 70.3833L16.0155 69.3217C15.9797 68.9794 16.1815 68.6567 16.5049 68.539Z" fill="#9EF2D4"/>
<path fill-rule="evenodd" clip-rule="evenodd" d="M19.7127 81.7379C20.016 81.6275 20.356 81.7236 20.5567 81.9765L21.3316 82.953C21.6251 83.3229 22.0756 83.5329 22.5476 83.52L23.7938 83.486C24.1165 83.4772 24.4087 83.6758 24.5191 83.9792C24.6295 84.2825 24.5334 84.6225 24.2805 84.8232L23.304 85.5982C22.9341 85.8917 22.7241 86.3422 22.737 86.8141L22.771 88.0604C22.7798 88.3831 22.5812 88.6752 22.2778 88.7856C21.9745 88.896 21.6345 88.7999 21.4338 88.5471L20.6588 87.5705C20.3653 87.2007 19.9148 86.9906 19.4429 87.0035L18.1966 87.0375C17.8739 87.0464 17.5818 86.8477 17.4714 86.5443C17.361 86.241 17.4571 85.901 17.7099 85.7003L18.6865 84.9254C19.0563 84.6319 19.2664 84.1814 19.2535 83.7094L19.2195 82.4632C19.2106 82.1405 19.4093 81.8483 19.7127 81.7379Z" fill="#9EF2D4"/>
<defs>
<clipPath id="clip0_381_979">
<rect width="24" height="24" fill="white" transform="translate(0 46) rotate(-30)"/>
</clipPath>
</defs>
</svg>
