<svg width="18" height="24" viewBox="0 0 18 24" fill="none" xmlns="http://www.w3.org/2000/svg">
<path d="M9 0.75C4.44365 0.75 0.75 4.44365 0.75 9C0.75 12.0508 2.40631 14.7138 4.86516 16.1405C5.55062 16.5382 5.97985 17.1484 5.99928 17.7626C6.00999 18.1013 6.24656 18.3908 6.5764 18.4687C6.92778 18.5518 7.28585 18.6171 7.64959 18.6639C7.97319 18.7055 8.25018 18.4462 8.25018 18.12V13.4589C7.9309 13.4236 7.61803 13.366 7.31324 13.2875C6.9121 13.1843 6.67061 12.7754 6.77385 12.3743C6.8771 11.9731 7.28599 11.7316 7.68713 11.8349C8.10594 11.9427 8.54576 12.0002 9.00018 12.0002C9.4546 12.0002 9.89443 11.9427 10.3132 11.8349C10.7144 11.7316 11.1233 11.9731 11.2265 12.3743C11.3298 12.7754 11.0883 13.1843 10.6871 13.2875C10.3823 13.366 10.0695 13.4236 9.75018 13.4589V18.1199C9.75018 18.4462 10.0272 18.7054 10.3508 18.6638C10.7144 18.6171 11.0723 18.5518 11.4236 18.4687C11.7534 18.3908 11.99 18.1013 12.0007 17.7626C12.0201 17.1484 12.4494 16.5382 13.1348 16.1405C15.5937 14.7138 17.25 12.0508 17.25 9C17.25 4.44365 13.5563 0.75 9 0.75Z" fill="#0F172A"/>
<path fill-rule="evenodd" clip-rule="evenodd" d="M6.01314 19.8997C6.09034 19.4927 6.48282 19.2254 6.88978 19.3026C7.57274 19.4321 8.2781 19.5 9 19.5C9.72191 19.5 10.4273 19.4321 11.1102 19.3026C11.5172 19.2254 11.9097 19.4927 11.9869 19.8997C12.0641 20.3066 11.7967 20.6991 11.3898 20.7763C10.6151 20.9232 9.81618 21 9 21C8.18383 21 7.38489 20.9232 6.61022 20.7763C6.20327 20.6991 5.93594 20.3066 6.01314 19.8997Z" fill="#0F172A"/>
<path fill-rule="evenodd" clip-rule="evenodd" d="M6.75407 22.344C6.79717 21.932 7.16607 21.633 7.57803 21.6761C8.04511 21.7249 8.5195 21.75 9 21.75C9.4805 21.75 9.95489 21.7249 10.422 21.6761C10.8339 21.633 11.2028 21.932 11.2459 22.344C11.289 22.7559 10.99 23.1248 10.578 23.1679C10.0592 23.2222 9.53272 23.25 9 23.25C8.46728 23.25 7.9408 23.2222 7.42197 23.1679C7.01 23.1248 6.71097 22.7559 6.75407 22.344Z" fill="#0F172A"/>
</svg>
