<svg width="16" height="16" viewBox="0 0 16 16" fill="none" xmlns="http://www.w3.org/2000/svg">
<path d="M13 10H10V9H13V10ZM15 14H12V13H15V14ZM14 12H11V11H14V12Z" fill="#625B71"/>
<path d="M8.5015 9.99999C8.49798 9.5781 8.38546 9.16428 8.17485 8.7987C7.96424 8.43312 7.66271 8.12818 7.29951 7.9135L11 1.5L10.135 1L6.34651 7.563C5.88156 7.45913 5.39798 7.47349 4.94002 7.60478C4.48205 7.73606 4.06431 7.98007 3.72501 8.3145C1.85301 10.12 1.99801 14.341 2.00501 14.52C2.01018 14.6491 2.06513 14.7712 2.15834 14.8607C2.25156 14.9502 2.37579 15.0001 2.50501 15H10.0005C10.1054 15 10.2077 14.967 10.2929 14.9056C10.378 14.8443 10.4417 14.7577 10.4748 14.6581C10.508 14.5585 10.509 14.4511 10.4778 14.3509C10.4465 14.2507 10.3845 14.163 10.3005 14.1C8.5305 12.772 8.5015 10.027 8.5015 9.99999ZM5.96501 8.4985C6.36519 8.50289 6.74827 8.66141 7.03455 8.94108C7.32083 9.22075 7.48826 9.60002 7.502 9.99999C7.502 10.019 7.50301 10.104 7.5105 10.2345L4.56051 8.92249C4.75483 8.76226 4.97906 8.64226 5.22018 8.56947C5.4613 8.49668 5.71448 8.47255 5.96501 8.4985ZM7.725 14C7.32535 13.5931 7.0706 13.066 7.00001 12.5H6.00001C6.03582 13.0321 6.20204 13.5473 6.48401 14H5.37251C5.16688 13.3511 5.04178 12.6794 5.00001 12H4.00001C4.03225 12.6774 4.14385 13.3486 4.33251 14H3.00001C3.01551 13.082 3.14501 11.054 3.90151 9.72349L7.668 11.3985C7.84897 12.3381 8.23479 13.2264 8.798 14H7.725Z" fill="#625B71"/>
</svg>
