<svg width="19" height="20" viewBox="0 0 19 20" fill="none" xmlns="http://www.w3.org/2000/svg">
<path fill-rule="evenodd" clip-rule="evenodd" d="M3.5 1.75C2.67157 1.75 2 2.42157 2 3.25L2 16.75C2 17.5784 2.67157 18.25 3.5 18.25H9.5C10.3284 18.25 11 17.5784 11 16.75V13C11 12.5858 11.3358 12.25 11.75 12.25C12.1642 12.25 12.5 12.5858 12.5 13V16.75C12.5 18.4069 11.1569 19.75 9.5 19.75H3.5C1.84315 19.75 0.5 18.4069 0.5 16.75L0.500001 3.25C0.500001 1.59315 1.84315 0.25 3.5 0.25L9.5 0.25C11.1569 0.25 12.5 1.59315 12.5 3.25V7C12.5 7.41421 12.1642 7.75 11.75 7.75C11.3358 7.75 11 7.41421 11 7V3.25C11 2.42157 10.3284 1.75 9.5 1.75L3.5 1.75ZM8.53033 6.46967C8.82323 6.76256 8.82323 7.23744 8.53033 7.53033L6.81066 9.25L17.75 9.25C18.1642 9.25 18.5 9.58579 18.5 10C18.5 10.4142 18.1642 10.75 17.75 10.75L6.81066 10.75L8.53033 12.4697C8.82322 12.7626 8.82322 13.2374 8.53033 13.5303C8.23744 13.8232 7.76256 13.8232 7.46967 13.5303L4.46967 10.5303C4.17678 10.2374 4.17678 9.76256 4.46967 9.46967L7.46967 6.46967C7.76257 6.17678 8.23744 6.17678 8.53033 6.46967Z" fill="#0F172A"/>
</svg>
